<svg xmlns="http://www.w3.org/2000/svg" xmlns:xlink="http://www.w3.org/1999/xlink" width="1024" zoomAndPan="magnify" viewBox="0 0 768 767.999994" height="1024" preserveAspectRatio="xMidYMid meet" version="1.0"><defs><g/></defs><rect x="-76.8" width="921.6" fill="#ffffff" y="-76.799999" height="921.599993" fill-opacity="1"/><rect x="-76.8" width="921.6" fill="#ffffff" y="-76.799999" height="921.599993" fill-opacity="1"/><path fill="#252241" d="M 0.675781 0.375 L 767.925781 0.375 L 767.925781 767.625 L 0.675781 767.625 Z M 0.675781 0.375 " fill-opacity="1" fill-rule="nonzero"/><path fill="#000000" d="M 768.300781 768 L 0.300781 768 L 0.300781 0 L 768.300781 0 Z M 1.050781 767.25 L 767.625 767.25 L 767.625 0.75 L 1.050781 0.75 Z M 1.050781 767.25 " fill-opacity="1" fill-rule="nonzero"/><path fill="#322e51" d="M 557.25 288.675781 C 557.25 291.503906 557.179688 294.335938 557.042969 297.160156 C 556.902344 299.988281 556.695312 302.808594 556.417969 305.628906 C 556.140625 308.445312 555.792969 311.253906 555.378906 314.050781 C 554.960938 316.851562 554.480469 319.640625 553.925781 322.414062 C 553.375 325.191406 552.753906 327.953125 552.066406 330.699219 C 551.378906 333.445312 550.625 336.171875 549.804688 338.878906 C 548.980469 341.589844 548.09375 344.273438 547.140625 346.941406 C 546.1875 349.605469 545.167969 352.246094 544.085938 354.859375 C 543 357.476562 541.855469 360.0625 540.644531 362.621094 C 539.433594 365.179688 538.164062 367.707031 536.828125 370.203125 C 535.492188 372.699219 534.097656 375.160156 532.644531 377.589844 C 531.1875 380.015625 529.675781 382.40625 528.101562 384.761719 C 526.53125 387.113281 524.902344 389.425781 523.214844 391.699219 C 521.527344 393.972656 519.789062 396.207031 517.992188 398.394531 C 516.195312 400.582031 514.347656 402.722656 512.449219 404.820312 C 510.546875 406.917969 508.59375 408.96875 506.59375 410.96875 C 504.59375 412.96875 502.542969 414.921875 500.445312 416.824219 C 498.347656 418.722656 496.207031 420.570312 494.019531 422.367188 C 491.832031 424.164062 489.597656 425.902344 487.324219 427.589844 C 485.050781 429.277344 482.738281 430.90625 480.386719 432.476562 C 478.03125 434.050781 475.640625 435.5625 473.214844 437.019531 C 470.785156 438.472656 468.324219 439.867188 465.828125 441.203125 C 463.332031 442.539062 460.804688 443.808594 458.246094 445.019531 C 455.6875 446.230469 453.101562 447.375 450.484375 448.460938 C 447.871094 449.542969 445.230469 450.5625 442.566406 451.515625 C 439.898438 452.46875 437.214844 453.355469 434.503906 454.179688 C 431.796875 455 429.070312 455.753906 426.324219 456.441406 C 423.578125 457.128906 420.816406 457.75 418.039062 458.300781 C 415.265625 458.855469 412.476562 459.335938 409.675781 459.753906 C 406.878906 460.167969 404.070312 460.515625 401.253906 460.792969 C 398.433594 461.070312 395.613281 461.277344 392.785156 461.417969 C 389.960938 461.554688 387.128906 461.625 384.300781 461.625 C 381.46875 461.625 378.640625 461.554688 375.8125 461.417969 C 372.988281 461.277344 370.164062 461.070312 367.347656 460.792969 C 364.53125 460.515625 361.722656 460.167969 358.921875 459.753906 C 356.125 459.335938 353.335938 458.855469 350.558594 458.300781 C 347.78125 457.75 345.023438 457.128906 342.277344 456.441406 C 339.53125 455.753906 336.804688 455 334.09375 454.179688 C 331.386719 453.355469 328.699219 452.46875 326.035156 451.515625 C 323.371094 450.5625 320.730469 449.542969 318.113281 448.460938 C 315.5 447.375 312.914062 446.230469 310.355469 445.019531 C 307.796875 443.808594 305.269531 442.539062 302.773438 441.203125 C 300.277344 439.867188 297.8125 438.472656 295.386719 437.019531 C 292.957031 435.5625 290.566406 434.050781 288.214844 432.476562 C 285.859375 430.90625 283.546875 429.277344 281.273438 427.589844 C 279 425.902344 276.769531 424.164062 274.582031 422.367188 C 272.394531 420.570312 270.25 418.722656 268.152344 416.824219 C 266.054688 414.921875 264.007812 412.96875 262.007812 410.96875 C 260.003906 408.96875 258.054688 406.917969 256.152344 404.820312 C 254.25 402.722656 252.402344 400.582031 250.609375 398.394531 C 248.8125 396.207031 247.070312 393.972656 245.386719 391.699219 C 243.699219 389.425781 242.070312 387.113281 240.496094 384.761719 C 238.925781 382.40625 237.410156 380.015625 235.957031 377.589844 C 234.5 375.160156 233.105469 372.699219 231.773438 370.203125 C 230.4375 367.707031 229.164062 365.179688 227.953125 362.621094 C 226.746094 360.0625 225.597656 357.476562 224.515625 354.859375 C 223.433594 352.246094 222.414062 349.605469 221.460938 346.941406 C 220.507812 344.273438 219.617188 341.589844 218.796875 338.878906 C 217.976562 336.171875 217.222656 333.445312 216.53125 330.699219 C 215.84375 327.953125 215.226562 325.191406 214.671875 322.414062 C 214.121094 319.640625 213.636719 316.851562 213.222656 314.050781 C 212.804688 311.253906 212.460938 308.445312 212.183594 305.628906 C 211.90625 302.808594 211.695312 299.988281 211.558594 297.160156 C 211.417969 294.335938 211.351562 291.503906 211.351562 288.675781 C 211.351562 285.84375 211.417969 283.015625 211.558594 280.1875 C 211.695312 277.363281 211.90625 274.539062 212.183594 271.722656 C 212.460938 268.90625 212.804688 266.097656 213.222656 263.296875 C 213.636719 260.5 214.121094 257.710938 214.671875 254.933594 C 215.226562 252.15625 215.84375 249.398438 216.53125 246.652344 C 217.222656 243.90625 217.976562 241.179688 218.796875 238.46875 C 219.617188 235.761719 220.507812 233.074219 221.460938 230.410156 C 222.414062 227.746094 223.433594 225.105469 224.515625 222.488281 C 225.597656 219.875 226.746094 217.289062 227.953125 214.730469 C 229.164062 212.171875 230.4375 209.644531 231.773438 207.148438 C 233.105469 204.652344 234.5 202.1875 235.957031 199.761719 C 237.410156 197.332031 238.925781 194.941406 240.496094 192.589844 C 242.070312 190.234375 243.699219 187.921875 245.386719 185.648438 C 247.070312 183.375 248.8125 181.144531 250.609375 178.957031 C 252.402344 176.769531 254.25 174.625 256.152344 172.527344 C 258.054688 170.433594 260.003906 168.382812 262.007812 166.382812 C 264.007812 164.378906 266.054688 162.429688 268.152344 160.527344 C 270.25 158.625 272.394531 156.777344 274.582031 154.984375 C 276.769531 153.1875 279 151.445312 281.273438 149.761719 C 283.546875 148.074219 285.859375 146.445312 288.214844 144.871094 C 290.566406 143.300781 292.957031 141.785156 295.386719 140.332031 C 297.8125 138.875 300.277344 137.480469 302.773438 136.148438 C 305.269531 134.8125 307.796875 133.539062 310.355469 132.328125 C 312.914062 131.121094 315.5 129.972656 318.113281 128.890625 C 320.730469 127.808594 323.371094 126.789062 326.035156 125.835938 C 328.699219 124.882812 331.386719 123.992188 334.09375 123.171875 C 336.804688 122.351562 339.53125 121.597656 342.277344 120.90625 C 345.023438 120.21875 347.78125 119.601562 350.558594 119.046875 C 353.335938 118.496094 356.125 118.011719 358.921875 117.597656 C 361.722656 117.179688 364.53125 116.835938 367.347656 116.558594 C 370.164062 116.28125 372.988281 116.070312 375.8125 115.933594 C 378.640625 115.792969 381.46875 115.726562 384.300781 115.726562 C 387.128906 115.726562 389.960938 115.792969 392.785156 115.933594 C 395.613281 116.070312 398.433594 116.28125 401.253906 116.558594 C 404.070312 116.835938 406.878906 117.179688 409.675781 117.597656 C 412.476562 118.011719 415.265625 118.496094 418.039062 119.046875 C 420.816406 119.601562 423.578125 120.21875 426.324219 120.90625 C 429.070312 121.597656 431.796875 122.351562 434.503906 123.171875 C 437.214844 123.992188 439.898438 124.882812 442.566406 125.835938 C 445.230469 126.789062 447.871094 127.808594 450.484375 128.890625 C 453.101562 129.972656 455.6875 131.121094 458.246094 132.328125 C 460.804688 133.539062 463.332031 134.8125 465.828125 136.148438 C 468.324219 137.480469 470.785156 138.875 473.214844 140.332031 C 475.640625 141.785156 478.03125 143.300781 480.386719 144.871094 C 482.738281 146.445312 485.050781 148.074219 487.324219 149.761719 C 489.597656 151.445312 491.832031 153.1875 494.019531 154.984375 C 496.207031 156.777344 498.347656 158.625 500.445312 160.527344 C 502.542969 162.429688 504.59375 164.378906 506.59375 166.382812 C 508.59375 168.382812 510.546875 170.429688 512.449219 172.527344 C 514.347656 174.625 516.195312 176.769531 517.992188 178.957031 C 519.789062 181.144531 521.527344 183.375 523.214844 185.648438 C 524.902344 187.921875 526.53125 190.234375 528.101562 192.589844 C 529.675781 194.941406 531.1875 197.332031 532.644531 199.761719 C 534.097656 202.1875 535.492188 204.652344 536.828125 207.148438 C 538.164062 209.644531 539.433594 212.171875 540.644531 214.730469 C 541.855469 217.289062 543 219.875 544.085938 222.488281 C 545.167969 225.105469 546.1875 227.746094 547.140625 230.410156 C 548.09375 233.074219 548.980469 235.761719 549.804688 238.46875 C 550.625 241.179688 551.378906 243.90625 552.066406 246.652344 C 552.753906 249.398438 553.375 252.15625 553.925781 254.933594 C 554.480469 257.710938 554.960938 260.5 555.378906 263.296875 C 555.792969 266.097656 556.140625 268.90625 556.417969 271.722656 C 556.695312 274.539062 556.902344 277.363281 557.042969 280.1875 C 557.179688 283.015625 557.25 285.84375 557.25 288.675781 Z M 557.25 288.675781 " fill-opacity="1" fill-rule="nonzero"/><path fill="#517abd" d="M 466.199219 225.523438 C 466.199219 226.054688 466.175781 226.578125 466.121094 227.105469 C 466.070312 227.632812 465.992188 228.152344 465.890625 228.671875 C 465.785156 229.1875 465.660156 229.699219 465.503906 230.207031 C 465.351562 230.710938 465.175781 231.207031 464.972656 231.695312 C 464.769531 232.183594 464.542969 232.660156 464.296875 233.125 C 464.046875 233.59375 463.777344 234.042969 463.480469 234.484375 C 463.1875 234.921875 462.875 235.347656 462.539062 235.753906 C 462.203125 236.164062 461.851562 236.554688 461.476562 236.925781 C 461.105469 237.300781 460.710938 237.65625 460.304688 237.988281 C 459.894531 238.324219 459.472656 238.640625 459.035156 238.933594 C 458.59375 239.226562 458.140625 239.496094 457.675781 239.746094 C 457.210938 239.996094 456.734375 240.21875 456.246094 240.421875 C 455.757812 240.625 455.261719 240.800781 454.753906 240.957031 C 454.25 241.109375 453.738281 241.238281 453.222656 241.339844 C 452.703125 241.441406 452.179688 241.519531 451.65625 241.574219 C 451.128906 241.625 450.601562 241.648438 450.074219 241.648438 C 449.546875 241.648438 449.019531 241.625 448.496094 241.574219 C 447.96875 241.519531 447.445312 241.441406 446.929688 241.339844 C 446.410156 241.238281 445.898438 241.109375 445.394531 240.957031 C 444.890625 240.800781 444.390625 240.625 443.902344 240.421875 C 443.417969 240.21875 442.9375 239.996094 442.472656 239.746094 C 442.007812 239.496094 441.554688 239.226562 441.117188 238.933594 C 440.675781 238.640625 440.253906 238.324219 439.84375 237.988281 C 439.4375 237.65625 439.046875 237.300781 438.671875 236.925781 C 438.300781 236.554688 437.945312 236.164062 437.609375 235.753906 C 437.273438 235.347656 436.960938 234.921875 436.667969 234.484375 C 436.375 234.042969 436.101562 233.59375 435.855469 233.125 C 435.605469 232.660156 435.378906 232.183594 435.175781 231.695312 C 434.976562 231.207031 434.796875 230.710938 434.644531 230.207031 C 434.492188 229.699219 434.363281 229.1875 434.261719 228.671875 C 434.15625 228.152344 434.078125 227.632812 434.027344 227.105469 C 433.976562 226.578125 433.949219 226.054688 433.949219 225.523438 C 433.949219 224.996094 433.976562 224.46875 434.027344 223.945312 C 434.078125 223.417969 434.15625 222.898438 434.261719 222.378906 C 434.363281 221.859375 434.492188 221.347656 434.644531 220.84375 C 434.796875 220.339844 434.976562 219.84375 435.175781 219.355469 C 435.378906 218.867188 435.605469 218.390625 435.855469 217.921875 C 436.101562 217.457031 436.375 217.003906 436.667969 216.566406 C 436.960938 216.128906 437.273438 215.703125 437.609375 215.296875 C 437.945312 214.886719 438.300781 214.496094 438.671875 214.121094 C 439.046875 213.75 439.4375 213.394531 439.84375 213.058594 C 440.253906 212.726562 440.675781 212.410156 441.117188 212.117188 C 441.554688 211.824219 442.007812 211.554688 442.472656 211.304688 C 442.9375 211.054688 443.417969 210.828125 443.902344 210.628906 C 444.390625 210.425781 444.890625 210.246094 445.394531 210.09375 C 445.898438 209.941406 446.410156 209.8125 446.929688 209.710938 C 447.445312 209.605469 447.96875 209.53125 448.496094 209.476562 C 449.019531 209.425781 449.546875 209.398438 450.074219 209.398438 C 450.601562 209.398438 451.128906 209.425781 451.65625 209.476562 C 452.179688 209.53125 452.703125 209.605469 453.222656 209.710938 C 453.738281 209.8125 454.25 209.941406 454.753906 210.09375 C 455.261719 210.246094 455.757812 210.425781 456.246094 210.628906 C 456.734375 210.828125 457.210938 211.054688 457.675781 211.304688 C 458.140625 211.554688 458.59375 211.824219 459.035156 212.117188 C 459.472656 212.410156 459.894531 212.726562 460.304688 213.058594 C 460.710938 213.394531 461.105469 213.75 461.476562 214.121094 C 461.851562 214.496094 462.203125 214.886719 462.539062 215.296875 C 462.875 215.703125 463.1875 216.128906 463.480469 216.566406 C 463.777344 217.003906 464.046875 217.457031 464.296875 217.921875 C 464.542969 218.390625 464.769531 218.867188 464.972656 219.355469 C 465.175781 219.84375 465.351562 220.339844 465.503906 220.84375 C 465.660156 221.347656 465.785156 221.859375 465.890625 222.378906 C 465.992188 222.898438 466.070312 223.417969 466.121094 223.945312 C 466.175781 224.46875 466.199219 224.996094 466.199219 225.523438 Z M 466.199219 225.523438 " fill-opacity="1" fill-rule="nonzero"/><path fill="#2fa954" d="M 318.300781 338.476562 L 350.25 338.476562 C 359.175781 338.476562 366.375 345.675781 366.375 354.601562 C 366.375 363.523438 359.175781 370.726562 350.25 370.726562 L 318.300781 370.726562 C 309.375 370.726562 302.175781 363.523438 302.175781 354.601562 C 302.175781 345.675781 309.449219 338.476562 318.300781 338.476562 Z M 318.300781 338.476562 " fill-opacity="1" fill-rule="nonzero"/><path fill="#fabd0d" d="M 318.523438 273.898438 C 327.449219 273.898438 334.648438 281.101562 334.648438 290.023438 C 334.648438 298.949219 327.449219 306.148438 318.523438 306.148438 C 309.601562 306.148438 302.398438 298.949219 302.398438 290.023438 C 302.398438 281.175781 309.601562 273.898438 318.523438 273.898438 Z M 318.523438 273.898438 " fill-opacity="1" fill-rule="nonzero"/><path fill="#e84436" d="M 318.523438 209.398438 C 327.449219 209.398438 334.648438 216.601562 334.648438 225.523438 C 334.648438 234.449219 327.449219 241.648438 318.523438 241.648438 C 309.601562 241.648438 302.398438 234.449219 302.398438 225.523438 C 302.398438 216.601562 309.601562 209.398438 318.523438 209.398438 Z M 318.523438 209.398438 " fill-opacity="1" fill-rule="nonzero"/><path fill="#ffffff" d="M 417.824219 370.875 C 408.824219 370.875 401.550781 363.601562 401.550781 354.601562 C 401.550781 345.601562 408.824219 338.324219 417.824219 338.324219 C 426.675781 338.324219 433.800781 331.199219 433.800781 322.351562 L 433.800781 306.375 L 385.574219 306.375 C 376.574219 306.375 369.300781 299.101562 369.226562 290.101562 L 369.226562 225.601562 C 369.523438 216.601562 377.101562 209.550781 386.101562 209.851562 C 394.648438 210.148438 401.550781 217.050781 401.851562 225.601562 L 401.851562 273.75 L 450.074219 273.75 C 459.074219 273.75 466.351562 281.023438 466.351562 290.023438 L 466.351562 322.273438 C 466.425781 349.125 444.675781 370.875 417.824219 370.875 Z M 417.824219 370.875 " fill-opacity="1" fill-rule="nonzero"/><g fill="#ffffff" fill-opacity="1"><g transform="translate(227.99608, 610.406942)"><g><path d="M 32.03125 -51.015625 C 29.09375 -51.015625 26.457031 -50.5 24.125 -49.46875 C 21.789062 -48.445312 19.816406 -46.953125 18.203125 -44.984375 C 16.585938 -43.015625 15.347656 -40.648438 14.484375 -37.890625 C 13.628906 -35.128906 13.203125 -32.019531 13.203125 -28.5625 C 13.203125 -23.945312 13.882812 -19.957031 15.25 -16.59375 C 16.625 -13.238281 18.691406 -10.648438 21.453125 -8.828125 C 24.210938 -7.003906 27.6875 -6.09375 31.875 -6.09375 C 34.375 -6.09375 36.765625 -6.320312 39.046875 -6.78125 C 41.328125 -7.238281 43.597656 -7.832031 45.859375 -8.5625 L 45.859375 -1.6875 C 43.671875 -0.851562 41.410156 -0.234375 39.078125 0.171875 C 36.753906 0.578125 34.03125 0.78125 30.90625 0.78125 C 25.070312 0.78125 20.21875 -0.425781 16.34375 -2.84375 C 12.476562 -5.269531 9.59375 -8.675781 7.6875 -13.0625 C 5.789062 -17.457031 4.84375 -22.632812 4.84375 -28.59375 C 4.84375 -32.914062 5.441406 -36.867188 6.640625 -40.453125 C 7.835938 -44.035156 9.59375 -47.132812 11.90625 -49.75 C 14.226562 -52.363281 17.078125 -54.378906 20.453125 -55.796875 C 23.828125 -57.222656 27.710938 -57.9375 32.109375 -57.9375 C 34.972656 -57.9375 37.765625 -57.628906 40.484375 -57.015625 C 43.210938 -56.398438 45.722656 -55.546875 48.015625 -54.453125 L 45.046875 -47.78125 C 43.140625 -48.632812 41.097656 -49.382812 38.921875 -50.03125 C 36.753906 -50.6875 34.457031 -51.015625 32.03125 -51.015625 Z M 32.03125 -51.015625 "/></g></g></g><g fill="#ffffff" fill-opacity="1"><g transform="translate(278.538016, 610.406942)"><g><path d="M 14.578125 0 L 6.6875 0 L 6.6875 -60.78125 L 14.578125 -60.78125 Z M 14.578125 0 "/></g></g></g><g fill="#ffffff" fill-opacity="1"><g transform="translate(299.78594, 610.406942)"><g><path d="M 23.5625 -43.828125 C 27.3125 -43.828125 30.523438 -43.023438 33.203125 -41.421875 C 35.890625 -39.828125 37.945312 -37.570312 39.375 -34.65625 C 40.8125 -31.738281 41.53125 -28.300781 41.53125 -24.34375 L 41.53125 -19.890625 L 12.3125 -19.890625 C 12.382812 -15.273438 13.566406 -11.738281 15.859375 -9.28125 C 18.148438 -6.820312 21.367188 -5.59375 25.515625 -5.59375 C 28.242188 -5.59375 30.675781 -5.851562 32.8125 -6.375 C 34.945312 -6.894531 37.160156 -7.660156 39.453125 -8.671875 L 39.453125 -2.078125 C 37.296875 -1.085938 35.128906 -0.363281 32.953125 0.09375 C 30.773438 0.550781 28.175781 0.78125 25.15625 0.78125 C 20.988281 0.78125 17.335938 -0.0507812 14.203125 -1.71875 C 11.066406 -3.382812 8.625 -5.851562 6.875 -9.125 C 5.132812 -12.394531 4.265625 -16.425781 4.265625 -21.21875 C 4.265625 -25.957031 5.054688 -30.007812 6.640625 -33.375 C 8.234375 -36.75 10.472656 -39.332031 13.359375 -41.125 C 16.253906 -42.925781 19.65625 -43.828125 23.5625 -43.828125 Z M 23.515625 -37.734375 C 20.335938 -37.734375 17.785156 -36.695312 15.859375 -34.625 C 13.929688 -32.5625 12.800781 -29.601562 12.46875 -25.75 L 33.640625 -25.75 C 33.609375 -28.113281 33.226562 -30.191406 32.5 -31.984375 C 31.769531 -33.785156 30.671875 -35.191406 29.203125 -36.203125 C 27.734375 -37.222656 25.835938 -37.734375 23.515625 -37.734375 Z M 23.515625 -37.734375 "/></g></g></g><g fill="#ffffff" fill-opacity="1"><g transform="translate(345.289306, 610.406942)"><g><path d="M 23.171875 -43.796875 C 28.484375 -43.796875 32.453125 -42.613281 35.078125 -40.25 C 37.710938 -37.894531 39.03125 -34.179688 39.03125 -29.109375 L 39.03125 0 L 33.40625 0 L 31.875 -6.25 L 31.5625 -6.25 C 30.363281 -4.6875 29.113281 -3.382812 27.8125 -2.34375 C 26.507812 -1.300781 25.003906 -0.519531 23.296875 0 C 21.597656 0.519531 19.523438 0.78125 17.078125 0.78125 C 14.472656 0.78125 12.15625 0.3125 10.125 -0.625 C 8.09375 -1.5625 6.492188 -2.972656 5.328125 -4.859375 C 4.171875 -6.753906 3.59375 -9.160156 3.59375 -12.078125 C 3.59375 -16.453125 5.269531 -19.769531 8.625 -22.03125 C 11.988281 -24.300781 17.082031 -25.539062 23.90625 -25.75 L 31.328125 -26.0625 L 31.328125 -28.484375 C 31.328125 -31.835938 30.578125 -34.203125 29.078125 -35.578125 C 27.585938 -36.960938 25.5 -37.65625 22.8125 -37.65625 C 20.601562 -37.65625 18.484375 -37.335938 16.453125 -36.703125 C 14.421875 -36.066406 12.46875 -35.304688 10.59375 -34.421875 L 8.09375 -40.125 C 10.125 -41.164062 12.429688 -42.035156 15.015625 -42.734375 C 17.609375 -43.441406 20.328125 -43.796875 23.171875 -43.796875 Z M 31.25 -20.90625 L 25.234375 -20.625 C 20.265625 -20.445312 16.769531 -19.617188 14.75 -18.140625 C 12.726562 -16.671875 11.71875 -14.625 11.71875 -12 C 11.71875 -9.707031 12.40625 -8.023438 13.78125 -6.953125 C 15.164062 -5.890625 16.992188 -5.359375 19.265625 -5.359375 C 22.753906 -5.359375 25.625 -6.335938 27.875 -8.296875 C 30.125 -10.265625 31.25 -13.175781 31.25 -17.03125 Z M 31.25 -20.90625 "/></g></g></g><g fill="#ffffff" fill-opacity="1"><g transform="translate(390.714554, 610.406942)"><g><path d="M 28.09375 -43.828125 C 33.0625 -43.828125 36.878906 -42.578125 39.546875 -40.078125 C 42.222656 -37.578125 43.5625 -33.566406 43.5625 -28.046875 L 43.5625 0 L 35.78125 0 L 35.78125 -27 C 35.78125 -30.4375 35.023438 -33.019531 33.515625 -34.75 C 32.003906 -36.476562 29.6875 -37.34375 26.5625 -37.34375 C 22.113281 -37.34375 18.992188 -36.023438 17.203125 -33.390625 C 15.421875 -30.765625 14.53125 -26.953125 14.53125 -21.953125 L 14.53125 0 L 6.6875 0 L 6.6875 -43.046875 L 12.890625 -43.046875 L 14.03125 -37 L 14.453125 -37 C 15.367188 -38.507812 16.53125 -39.769531 17.9375 -40.78125 C 19.34375 -41.800781 20.910156 -42.5625 22.640625 -43.0625 C 24.367188 -43.570312 26.1875 -43.828125 28.09375 -43.828125 Z M 28.09375 -43.828125 "/></g></g></g><g fill="#ffffff" fill-opacity="1"><g transform="translate(440.670599, 610.406942)"><g><path d="M 43.25 -43.046875 L 43.25 0 L 36.953125 0 L 35.859375 -5.90625 L 35.4375 -5.90625 C 34.550781 -4.414062 33.40625 -3.175781 32 -2.1875 C 30.59375 -1.195312 29.015625 -0.457031 27.265625 0.03125 C 25.523438 0.53125 23.675781 0.78125 21.71875 0.78125 C 18.414062 0.78125 15.609375 0.234375 13.296875 -0.859375 C 10.992188 -1.953125 9.25 -3.648438 8.0625 -5.953125 C 6.882812 -8.265625 6.296875 -11.242188 6.296875 -14.890625 L 6.296875 -43.046875 L 14.1875 -43.046875 L 14.1875 -15.984375 C 14.1875 -12.515625 14.929688 -9.921875 16.421875 -8.203125 C 17.921875 -6.484375 20.207031 -5.625 23.28125 -5.625 C 26.28125 -5.625 28.65625 -6.21875 30.40625 -7.40625 C 32.164062 -8.59375 33.429688 -10.320312 34.203125 -12.59375 C 34.972656 -14.875 35.359375 -17.671875 35.359375 -20.984375 L 35.359375 -43.046875 Z M 43.25 -43.046875 "/></g></g></g><g fill="#ffffff" fill-opacity="1"><g transform="translate(490.626666, 610.406942)"><g><path d="M 27.859375 -43.828125 C 33.085938 -43.828125 37.269531 -41.972656 40.40625 -38.265625 C 43.550781 -34.554688 45.125 -29.015625 45.125 -21.640625 C 45.125 -16.742188 44.398438 -12.632812 42.953125 -9.3125 C 41.503906 -6 39.472656 -3.488281 36.859375 -1.78125 C 34.242188 -0.0703125 31.175781 0.78125 27.65625 0.78125 C 25.445312 0.78125 23.507812 0.488281 21.84375 -0.09375 C 20.175781 -0.6875 18.75 -1.46875 17.5625 -2.4375 C 16.375 -3.414062 15.378906 -4.46875 14.578125 -5.59375 L 14.0625 -5.59375 C 14.164062 -4.570312 14.273438 -3.390625 14.390625 -2.046875 C 14.515625 -0.710938 14.578125 0.488281 14.578125 1.5625 L 14.578125 19.140625 L 6.6875 19.140625 L 6.6875 -43.046875 L 13.125 -43.046875 L 14.1875 -36.875 L 14.578125 -36.875 C 15.378906 -38.15625 16.375 -39.320312 17.5625 -40.375 C 18.75 -41.425781 20.1875 -42.265625 21.875 -42.890625 C 23.570312 -43.515625 25.566406 -43.828125 27.859375 -43.828125 Z M 26.0625 -37.34375 C 23.300781 -37.34375 21.09375 -36.800781 19.4375 -35.71875 C 17.78125 -34.644531 16.566406 -33.039062 15.796875 -30.90625 C 15.035156 -28.769531 14.628906 -26.085938 14.578125 -22.859375 L 14.578125 -21.609375 C 14.578125 -18.171875 14.941406 -15.269531 15.671875 -12.90625 C 16.398438 -10.550781 17.609375 -8.753906 19.296875 -7.515625 C 20.992188 -6.285156 23.273438 -5.671875 26.140625 -5.671875 C 28.585938 -5.671875 30.625 -6.332031 32.25 -7.65625 C 33.875 -8.988281 35.082031 -10.863281 35.875 -13.28125 C 36.675781 -15.707031 37.078125 -18.519531 37.078125 -21.71875 C 37.078125 -26.59375 36.175781 -30.414062 34.375 -33.1875 C 32.582031 -35.957031 29.8125 -37.34375 26.0625 -37.34375 Z M 26.0625 -37.34375 "/></g></g></g></svg>